<svg xmlns="http://www.w3.org/2000/svg" viewBox="0 0 156.9 144">
<!-- SVG created with Arrow, by QuiverAI (https://quiver.ai) -->
  <style type="text/css">.cls-0 {fill:#F2E2CA;}
.cls-1 {fill:#FCF3DC;}
.cls-2 {fill:#FFFFFF;}
.cls-3 {fill:none;stroke:#785B58;stroke-width:3;stroke-linecap:round;stroke-linejoin:round;stroke-miterlimit:10;}
.cls-4 {fill:#FFFDF5;}
.cls-5 {fill:#E7AEA3;}
.cls-6 {fill:none;stroke:#785B58;stroke-width:3.0693;stroke-linecap:round;stroke-linejoin:round;stroke-miterlimit:10;}
.cls-7 {fill:#C69389;}
.cls-8 {fill:#FFFFFE;}
.cls-9 {fill:#E5AF9F;}
.cls-10 {fill:none;stroke:#785B58;stroke-width:3;stroke-linejoin:round;stroke-miterlimit:10;}
.cls-11 {fill:#F8C5BE;}
.cls-12 {fill:#FDF5DA;}
.cls-13 {fill:#785B58;}
.cls-14 {fill-rule:evenodd;clip-rule:evenodd;fill:#785B58;}
.cls-15 {fill:#FAC3BF;}
.cls-16 {fill:#FBCCC6;}
.cls-17 {fill:#FFEFD4;}
.cls-18 {fill:#F8C3BC;}</style>
  <path class="cls-13" d="m16.1 135.4 1.1-12.9c0.1-0.9 0.6-1.3 1.4-1.3h0.9c0.8 0 1.2 0.3 1.5 1l3.1 8.9 3.3-8.9c0.3-0.7 0.7-1 1.5-1h0.9c0.7 0 1.3 0.4 1.5 1.3l0.9 12.9c0.1 0.9-0.4 1.4-1.3 1.4h-0.4c-0.8 0-1.2-0.4-1.2-1.2l-0.6-8.9-2.8 7.5c-0.2 0.7-0.7 1-1.4 1h-0.6c-0.7 0-1.2-0.3-1.4-1l-2.7-7.5-0.8 8.9c-0.1 0.8-0.5 1.2-1.3 1.2h-0.2c-1-0.1-1.5-0.5-1.4-1.4z"/>
  <path class="cls-13" d="m33.7 131.6c0-3.2 2.3-5.8 5.8-5.8s5.5 2.5 5.5 5.6c0 3.2-2.3 5.5-5.6 5.5s-5.7-2.3-5.7-5.3zm8.4-0.1c0-1.6-1.1-2.9-2.7-2.9s-2.5 1.1-2.5 2.8c0 1.6 1.1 2.9 2.7 2.9 1.4 0 2.5-1.2 2.5-2.8z"/>
  <path class="cls-13" d="m46.2 131.5c0-3.1 2.2-5.7 5.7-5.7 1.3 0 2.9 0.4 3.9 1.3 0.5 0.5 0.6 1.2 0.2 1.8l-0.1 0.2c-0.5 0.5-1.3 0.6-1.8 0.2s-1.1-0.7-2.1-0.7c-1.6 0-2.9 1-2.9 2.9 0 1.8 1.4 2.9 2.7 2.9 0.9 0 1.6-0.3 2.1-0.9 0.5-0.5 1.2-0.7 1.8-0.2l0.2 0.1c0.6 0.5 0.7 1.2 0.2 2-0.8 1-2.4 1.5-4.3 1.5-3.3 0-5.6-2.3-5.6-5.4z"/>
  <path class="cls-13" d="m58 135.6v-13.5c0-0.8 0.6-1.4 1.5-1.4h0.1c0.8 0 1.3 0.6 1.3 1.3v3.4l-0.1 2c0.8-1.1 1.8-1.7 3.3-1.7 2.2 0 3.6 1.4 3.6 4v5.8c0 0.8-0.5 1.3-1.4 1.3h-0.1c-0.7 0-1.3-0.5-1.3-1.3v-4.8c0-1.6-0.8-2.1-1.7-2.1-1.1 0-2.3 0.7-2.3 2.7v4.3c0 0.7-0.5 1.3-1.3 1.3h-0.4c-0.7 0-1.2-0.6-1.2-1.3z"/>
  <path class="cls-13" d="m69.5 122.6c0-0.9 0.7-1.7 1.8-1.7 1 0 1.8 0.8 1.8 1.7s-0.8 1.8-1.8 1.8-1.8-0.8-1.8-1.8zm0.3 12.9v-8.3c0-0.9 0.4-1.4 1.3-1.4h0.3c0.8 0 1.3 0.5 1.3 1.4v8.3c0 0.8-0.5 1.3-1.3 1.3h-0.1c-1 0-1.5-0.5-1.5-1.3z"/>
  <path class="cls-13" d="m90.9 126.3c0 2.8-1.8 5-5.3 5.1h-2.6v4.1c0 1-0.8 1.3-1.6 1.3-0.7 0-1.5-0.4-1.5-1.2v-12.9c0-0.8 0.5-1.4 1.4-1.4h4.3c3.3-0.1 5.3 2.1 5.3 5zm-3.1 0.1c0-1.5-0.9-2.5-2.2-2.5h-2.6v4.8h2.6c1.8-0.1 2.2-1 2.2-2.3z"/>
  <path class="cls-13" d="m92.7 135.5v-12.9c0-1.5 0.7-1.9 1.3-1.9h0.3c0.8 0 1.3 0.5 1.3 1.3v13.2c0 1.1-0.5 1.6-1.3 1.6h-0.3c-0.6 0-1.3-0.3-1.3-1.3z"/>
  <path class="cls-13" d="m97.5 131.6c-0.1-3.1 2-5.8 5-5.8 1.4 0 2.4 0.6 3.1 1.6v-0.4c0-0.9 0.7-1.3 1.4-1.3s1.3 0.4 1.3 1.1v8.7c0 0.9-0.6 1.2-1.4 1.2-0.7 0-1.2-0.3-1.3-1.1v-0.2c-0.7 0.9-1.8 1.5-3.2 1.5-3.2 0.1-5-2.3-4.9-5.3zm8-0.1c0-1.5-1-2.9-2.7-2.9-1.5 0-2.6 1.2-2.6 2.9s0.9 2.9 2.6 2.9c1.7-0.1 2.7-1.3 2.7-2.9z"/>
  <path class="cls-13" d="m111.6 139.3 2.1-4-3.9-7.8c-0.4-0.9 0.3-1.7 1.2-1.7h0.3c0.8 0 1.2 0.3 1.4 1.1l2.5 5.2 2.2-5.3c0.2-0.7 0.7-1.1 1.4-1h0.1c1 0 1.7 0.9 1.3 1.7l-5.8 12.9c-0.3 0.6-0.6 0.6-1.3 0.6h-0.2c-1.1-0.1-1.7-0.8-1.3-1.7z"/>
  <path class="cls-13" d="m120.9 131.6c0-3 2-5.8 5.4-5.8 3.1 0 5.3 2.2 5.3 5 0 0.8-0.5 1.6-1.2 1.6h-6.8c0.2 1.2 1.3 2.2 3 2.2 0.8 0 1.3-0.2 2-0.6 0.7-0.5 1.1-0.6 1.7-0.2l0.2 0.1c0.8 0.5 0.9 1.5 0.1 2-1 0.8-2.3 1-4 1-3.7 0-5.7-2.3-5.7-5.3zm7.8-1.3c-0.3-1.3-1.3-2.3-2.8-2.2-1.2-0.1-2.2 1-2.4 2.2h5.2z"/>
  <path class="cls-13" d="m140.7 127-0.1 0.3c-0.3 1.6-1.2 0.8-1.9 1-1.4-0.2-2.2 1-2.2 3.1v4.1c0 0.9-0.8 1.3-1.4 1.3h-0.2c-0.8 0-1.3-0.3-1.4-1.2v-8.8c0-0.7 0.5-1.1 1.4-1.1h0.2c0.9 0 1.4 0.4 1.4 1.3v0.9c0.3-1.3 1.2-2.3 2.6-2.2 1.1-0.2 1.8 0.5 1.6 1.3z"/>
  <path class="cls-0" d="m46.7 101.4c0.6 3.9 4.8 9.6 11.4 9.7 3.7 0 5.8-0.6 7.6-2.3"/>
  <path class="cls-0" d="m90.9 108.6c1.6 1.6 4.1 2.6 7.3 2.5 6.3 0 10.7-4.7 11.2-9"/>
  <path class="cls-1" d="m117.2 64.7c1.5 6.1 3.2 15.7 1.2 23.9-2.8 11.3-14.7 20.5-40.3 20.8-22.5 0-36-6.2-39.8-17.5-3.2-9.1-1.3-19.6 0.4-27.4"/>
  <path class="cls-0" d="m37.1 86.7c-2.8-0.1-7-1.1-7-6.3 0-7.5 7.3-14.8 8.2-15.1"/>
  <path class="cls-0" d="m119 86.7c2.8-0.1 6.5-1.5 6.6-6.3 0-6.8-6.7-14.8-7.5-15.1"/>
  <path class="cls-2" d="m110.4 21.9c2.3 3.1 3.6 7.4 4 10.5l-4.9 0.6c-0.6-2.7-2.2-6.8-3.6-9.4"/>
  <path class="cls-12" d="m42.5 32.4c0.6-3.4 2.5-8.2 4.1-10.6l3.8 2.2c-1 2.1-3.1 6.6-3.5 8.9l-4.4-0.5z"/>
  <path class="cls-0" d="m36.5 82.4c-2.9-0.3-5.2-2.5-5.2-5.8l-1.6 4c0.2 5.3 4.6 5.8 7.3 6l-0.5-4.2z"/>
  <path class="cls-0" d="m119.8 82.4c2.4-0.5 4.3-2.8 4.6-5.5l1.2 4.1c-0.2 4.3-4.2 5.4-6.5 5.7l0.7-4.3z"/>
  <path class="cls-0" d="m37.7 77c1.2 4.6 6.8 20.7 39.7 21.9 17.3 0 38-6.3 40.5-24.5l1.8 0.2c0.4 5.8 0.4 14.3-4 20.3-5.1 6.8-15.6 13.7-37.7 14.5s-33.5-5.8-38.1-13.3c-2.8-5-3.6-14.2-2.2-19.1z"/>
  <path class="cls-1" d="m48.7 36.7c4.8-6.1 13.8-14.4 29.2-14.7 15.1 0 25 7.9 29 13.6l2.7 18.4c1 5.6 3.8 6.6 6.9 6.6l2.9 12.5c-2.4 13.8-12.8 23.8-41.4 25.8-18.6 0-36.6-5.9-40.5-21.9-0.1-4.6 2.4-15 2.4-16.4 3 0.1 5.6-0.7 6.5-4.6l2.3-19.3z"/>
  <path class="cls-4" d="m58 77.6c2.4-5 9-11.7 19.6-11.7 9.3-0.3 17.3 6.1 19.5 13-0.6 6-0.9 13.1-4 17.7-5.7 2-15.5 2.1-20.1 2l-10.6-1.7c-3-2.2-5.5-8.8-4.4-19.3z"/>
  <path class="cls-1" d="m48.7 40.4c3.3-4.7 12.3-14.3 29.3-14.3 13-0.1 24.5 7.3 28.9 13.8l-1.4-4.8c-6.8-7-13.6-12.2-27.6-13.1-12.5 0-20.9 4.9-27.8 12.5l-1.4 5.9z"/>
  <path class="cls-8" d="m90.4 33.9c3.1 2.3 4.6 1.6 4.7 0 0-1.5-2.2-3-4.2-3-1.5 0.1-2.3 2-0.5 3z"/>
  <path class="cls-9" d="m48 19c4.4-5.6 12.9-14.9 30-15.1 14-0.2 24.4 6.1 30 13.5 3 3.2 0 6.6-2.4 5.6-4.2-4.6-11.6-13-27.6-13.1-11.4 0-20 5.1-26.5 13.1-1.5 1.4-5.6-0.9-3.5-4z"/>
  <path class="cls-1" d="m39.4 34.4c0.6 4-1.6 20.7-2.5 22.2-3.3-0.2-6.8-2-6.8-7.6 0.3-6.6 1.7-14.4 9.3-14.6z"/>
  <path class="cls-0" d="m36.9 50.4c-2.3 0-5.1-1.5-5.4-7l-1.5 4.6c0.1 6 2.4 8.1 6.9 8.7l0.5-6.6-0.5 0.3z"/>
  <path class="cls-1" d="m116.7 34.4c1.2 2.5 2.9 20 2.9 22.2 3.3-0.2 6.3-2.2 6.3-6.9-0.3-6.7-0.8-15.6-9.2-15.3z"/>
  <path class="cls-0" d="m119.5 50.4c2.4 0 4.6-1.5 5.1-6.8l1.4 6.3c-0.1 4.1-3 6.5-6.9 6.8l0.4-6.3z"/>
  <path class="cls-9" d="m44.7 32.4c-2.8 0-5 1.6-5.6 4.6l-2.6 18.6c0 2.8 1.9 5 4.6 5 2.8 0 4.6-2 5-4l2.9-19c0.4-3.5-1.6-5.2-4.3-5.2z"/>
  <path class="cls-7" d="m38.9 49.7c0.8 3.7 5 6.7 7.2 0l-0.6 7.3c-2 4.6-8.1 4.4-8.9 0l2.3-7.3z"/>
  <path class="cls-9" d="m111.6 32.1c2.8-0.4 5.3 1.8 5.3 4.1l2.7 19.7c0 2.2-2 4.8-4.6 4.7-2.3 0-4.6-1.6-5.1-4l-3-20c0.1-2.6 2.5-4.5 4.7-4.5z"/>
  <path class="cls-7" d="m110.2 48.1c1.7 5.9 5.7 8.3 7.7 1.9l0.8 7.1c-1.8 4.9-7.3 3.6-8.5 0.3v-9.3z"/>
  <path class="cls-8" d="m40.5 36.1c1.2-2.1 5.6-3.7 7.1 0l1.5-1.2c-1.4-2.5-4.5-3.8-7.4-1.9l-1.2 0.9v2.2z"/>
  <path class="cls-8" d="m107.9 35.6c0.8-2.2 5.5-3.9 8-0.7l1-0.9c-1.9-2.1-5-3.4-7.3-1.9l-1.7 1.5v2z"/>
  <path class="cls-8" d="m108.1 36.7c0.6-2.3 5.6-4.6 7.8-0.7l0.7-2c-1.5-1.9-5.2-3-7.7-1.4l-0.8 2v2.1z"/>
  <path class="cls-2" d="m108.1 37.1c2-4.5 6.6-3.5 7.9-0.5l-0.3-3c-2.3-1.7-4.7-2-7 0l-0.6 0.8v2.7z"/>
  <path class="cls-9" d="m40.5 36.4c0.6-2.3 6-4.5 7.5-0.5v-1.9l-0.9-1.1-3-1-3.2 1.2-0.9 1.3 0.5 2z"/>
  <path class="cls-8" d="m108.1 36.4c0.6-2.5 5.6-4.5 7.5-0.4l1-2-3.7-2.4-4 1.3-0.8 0.5v3z"/>
  <path class="cls-9" d="m108.4 36.4c0.6-2.5 5-3.8 7-0.4l1-2.4-3.8-2c-1.2 0.4-3.9 1.1-4.7 1.8l0.5 3z"/>
  <path class="cls-3" d="m48 35.3c5.5-6.7 14.6-13.2 27.4-13.4 9.6-0.5 19.5 1.7 30.5 12.1"/>
  <path class="cls-10" d="m48 18.7c2.5-3.7 11.7-15.1 29.9-14.8 16.8-0.3 27.1 9.1 30.6 14.5"/>
  <path class="cls-3" d="m41.9 32.6c0.7-4 2.8-8.9 4.5-10.7"/>
  <path class="cls-3" d="m109.5 21.6c1.5 0.8 3.9 6.3 4.4 9.3"/>
  <path class="cls-3" d="m49.9 24.4c-1 1.5-2.8 6-3.2 8.3"/>
  <path class="cls-3" d="m106.4 24c1.2 2.1 2.6 5.6 3 8.1"/>
  <path class="cls-6" d="m46.1 101.1c0.8 5 5.3 10 11.8 10 4.1 0 5.5-1 7.2-2.2"/>
  <path class="cls-6" d="m91.1 108.6c2 1.8 4.5 2.5 7 2.5 6.4 0 10.9-4.4 11.5-9"/>
  <path class="cls-3" d="m38.1 65.1c-3 2.5-8.1 8.6-8.2 15.3 0.1 4.2 3.1 6 6.5 6.2"/>
  <path class="cls-3" d="m117.9 65.1c3.1 2.5 7.6 8.6 7.7 14.9 0 4.6-3.2 6.6-6.2 6.7"/>
  <path class="cls-3" d="m39.6 60.6c-2.7 11-5.5 25 0.4 33.8 5.4 8.2 17.4 15 38.1 15s32.5-3.8 37.3-12.4c6.2-7.9 5.2-20.9 1.2-35.9"/>
  <path class="cls-3" d="m39.9 34.4c-3.2-0.8-7.5 1-8.8 5.7-0.7 2.6-1.2 6.6-1.3 8.9 0.1 5 3.3 7.6 6.7 7.6"/>
  <path class="cls-3" d="m116.6 34.4c4.4-0.8 7.3 1.7 8 5.6 0.8 2.6 1.3 6.6 1.3 9 0 3.9-2.8 7.6-6.4 7.6"/>
  <path class="cls-6" d="m44.7 32.1c-2.8 0-5.1 1.8-5.3 4.8l-2.9 18.7c0 2.4 1.9 5 4.9 5 2 0 4.2-1.5 4.6-4 0.6-2.5 2.9-18.5 3-20 0.1-2.6-1.9-4.7-4.3-4.5z"/>
  <path class="cls-6" d="m111.6 32.1c2.5-0.4 5 1.3 5.3 4.3l2.6 19.6c-0.1 2-1.6 4.6-4.8 4.6-2.1 0-4.3-1.6-4.7-4l-3.1-20c0-2.6 2.5-4.6 4.7-4.5z"/>
  <path class="cls-3" d="m47.1 20.9c0 2.1 2.8 3.5 4 2.1 3.5-3.9 10.8-13 26.3-13.1 13-0.3 21.3 5.1 27.2 12.7 1.8 2.5 5-0.2 3.9-2.6l-1.8-2.4"/>
  <path class="cls-14" d="m68 47c0 1.6-1.3 2.9-3.1 3.1-1.8 0-3-1.1-3-3.1s1.5-3.1 3.1-3.1c1.5 0.1 3 1.2 3 3.1z"/>
  <path class="cls-14" d="m93.9 47c0 1.6-1.3 3.1-3.3 3.1-1.6 0-2.9-1.1-2.9-3.2 0-1.5 1.3-3 3-3 1.9 0 3.2 1.5 3.2 3.1z"/>
  <path class="cls-15" d="m53.3 54.1c0 2 2.2 3.5 5.3 3.5 2.5 0 5.1-1.2 5.1-3.5-0.1-1.7-2.3-3.5-5.3-3.5-2.7 0-5.1 1.5-5.1 3.5z"/>
  <path class="cls-15" d="m92.1 54.1c0 2 2.5 3.5 5 3.5 3 0 5.3-1.5 5.3-3.5-0.1-1.7-2-3.5-5.4-3.5-2.6 0-4.9 1.5-4.9 3.5z"/>
  <path class="cls-3" d="m50.4 84.4c2 2.5 7.2 5.6 10.7 3.2 3-2.2 3-7-3-11.5"/>
  <path class="cls-3" d="m105 84.4c-2.6 2.7-7.4 5.6-10.6 3-3-2.4-3-6.7 3.2-11.3"/>
  <path class="cls-11" d="m71.2 76 0.1 13.1c0 0.9 0.8 1.6 1.7 1.3 2.7-1 9-4.3 11.5-5.8 0.9-0.5 1.5-1.5 0.6-2.6l-12-7.4c-1.1-0.5-2 0.1-1.9 1.4z"/>
  <path class="cls-3" d="m71.3 75.9v13.2c0 1.3 1.1 1.8 2.1 1.3 1.6-0.7 9.5-4.8 11.2-5.8 1.3-0.6 1.9-2.2-0.1-3.2l-11.1-6.5c-0.9-0.8-2.1-0.2-2.1 1z"/>
  <path class="cls-16" d="m124.5 3.9 0.1 11.5c-2.2-1.5-6.5 0-6.5 3.5 0.4 5.1 9 5.5 9 0v-10.2c2.9 1.7 3.8 3.4 3.3 5.2 0 1.1 1.2 0.7 2.2-0.9 2.1-5-3.9-6.9-5.1-8.6-0.9-2.4-2.9-1.8-3-0.5z"/>
  <path class="cls-17" d="m135.1 50.1 9.4-1.4c0.6 0.3 1 0.3 1 2.4v9.5c0 4.3-6.5 4.5-6.5 0.3 0.1-2.5 2.9-3 4.5-2.5l-0.1-4.7-5.8 0.9v9.4c-0.6 4.4-8.1 4.7-8.1-0.3 0.4-3.1 3.5-3.6 5.9-2.8l-0.2-9.8"/>
  <path class="cls-18" d="m22.1 14.6 1.5 11c-3.2-0.6-6 1.3-6.2 4 0 4.3 6.3 5.8 8.7 2 1.3-2 0.3-3.6 0.3-5.2l-1.1-7.7c1.4 0.3 4.1 1.7 3.8 4.9 0.5 2 3.9-1.5 1.5-5-1.6-2-4.7-2.7-5.7-4.5-0.8-1.5-2.8-1-2.8 0.5z"/>
  <path class="cls-16" d="m14 60.6 1.6 9.1c-3-0.6-5.6 2.4-4.5 4.9 1.9 3.8 7.6 2.3 7.6-2l-2-9 6-2.5 1 4.5c-4.1-0.5-5.3 5-1.6 6 2.8 0.3 5.3-1.2 4.6-4l-2.6-10.7c-0.2-0.5-0.7-0.8-1.5-0.5l-8.1 3c-0.5 0.1-0.9 0.7-0.5 1.2z"/>
  <path class="cls-16" d="m129.1 89.4 0.2 9c-3.8-1.5-6.4 1.7-5.4 4.2 1.2 3.4 7.6 3.4 7.7-1v-9l6.3-1 0.2 4.3c-4.4-1.5-6.1 4-3.6 5.5 2 1 5.6 0.2 5.7-2.5v-10.5c0-0.8-0.5-1.5-1.2-1.3l-8.9 1.3c-0.6 0.2-1 0.6-1 1z"/>
</svg>