<svg xmlns="http://www.w3.org/2000/svg" viewBox="0 0 156.4 138">
<!-- SVG created with Arrow, by QuiverAI (https://quiver.ai) -->
  <style type="text/css">.cls-0 {fill:#E99097;}
.cls-1 {fill:#FFC0BF;}
.cls-2 {fill:none;stroke:#E99097;stroke-width:3;stroke-linecap:round;stroke-linejoin:round;stroke-miterlimit:10;}
.cls-3 {fill:#FFF8DF;}
.cls-4 {fill:#F5DCCE;}
.cls-5 {fill:#FCB8BC;}
.cls-6 {fill:#FFFFFF;enable-background:new    ;}
.cls-7 {fill:#FEE5E4;}
.cls-8 {fill:#F8AEAF;}
.cls-9 {fill:#F4ACB1;}
.cls-10 {fill:#EFABB1;}
.cls-11 {fill:#FFF9DE;}</style>
  <path class="cls-0" d="m10.6 131 1-13c0.1-2 1.4-2 2.6-2 1.7 0 2.1 0.5 2.4 1.6l3.5 9.7 3.6-9.7c-1.2-1.7 0.3-1.6 1.3-1.6s2 0.4 2 2l0.9 13v0.5c-0.1 0.9-1 1.3-1.7 1.3s-1.4-0.2-1.5-1.3l-0.6-10.9-3.4 10c-0.4 1.2-0.7 1.3-1.9 1.3s-1.6 0-2.1-1.4l-3.1-9.7-0.7 10.7c-0.1 1.1-0.9 1.5-1.6 1.5s-1.6-0.6-1.6-1.4v-0.6z"/>
  <path class="cls-0" d="m41.8 126.6c0 3.4-2.4 6.3-6.1 6.3s-6.1-2.5-6.1-6.3c0-3.5 2.4-6.1 6.1-6.1 3.9 0 6.1 2.8 6.1 6.1zm-8.8 0c0 1.9 1.1 3.5 2.7 3.5 1.9 0 3.2-1.3 3.2-3.5 0-1.6-1.1-3.1-3.2-3.1-1.6-0.1-3 1.1-2.7 3.1z"/>
  <path class="cls-0" d="m49.5 120.4c2.4 0 4.9 1 4.9 2.7 0 0.7-0.5 1.4-1.4 1.4-1 0-1.3-1.2-3.4-1.2-1.7 0-3.2 1.4-3.2 3.3 0 2 1.1 3.5 2.9 3.5 2 0 2.6-1.5 3.5-1.6 0.8 0 1.6 0.5 1.6 1.4 0 1.7-2.6 3-5.2 3-3.4 0-6-2.6-6-6 0-3.5 2.3-6.5 6.3-6.5z"/>
  <path class="cls-0" d="m56.2 116.5c0-0.9 0.7-1.5 1.6-1.5s1.5 0.7 1.5 1.5v5.5h0.1c0.7-1.1 1.8-1.6 3.5-1.6 2.3 0.1 3.9 1.6 3.9 3.9v7.2c0 0.9-0.7 1.4-1.5 1.4-0.9 0.1-1.6-0.6-1.6-1.4v-5.6c0-1.6-0.5-2.4-1.9-2.5-1.4 0-2.5 1.2-2.5 2.6v5.5c0 0.9-0.9 1.4-1.5 1.4-0.8 0-1.6-0.5-1.6-1.4v-15z"/>
  <path class="cls-0" d="m72.7 117c-0.1 1.1-0.7 2-1.9 2-1 0-1.8-0.9-1.8-2 0-0.9 0.7-1.8 1.8-1.7 1.1 0 1.9 0.7 1.9 1.7zm-3.4 5.2c0-0.9 0.6-1.7 1.5-1.7 1 0 1.6 0.6 1.6 1.7v9.2c0 0.8-0.6 1.5-1.6 1.5-0.9 0-1.5-0.6-1.5-1.5v-9.2z"/>
  <path class="cls-0" d="m80.5 117.4c0-0.9 0.6-1.5 1.5-1.5h4.7c3.1 0 5.7 1.6 5.7 5.2 0 3.2-2.2 5.5-5.8 5.5h-3v4.5c0 1.3-0.7 1.8-1.7 1.8s-1.5-0.5-1.5-1.4v-14.1zm3.1 6.4h2.7c1.7 0 2.8-0.7 2.8-2.5 0-1.6-1.1-2.7-2.6-2.7h-2.9v5.2z"/>
  <path class="cls-0" d="m94.3 116.5c0-0.9 0.7-1.5 1.5-1.5 0.9 0 1.5 0.7 1.5 1.5v15c0.1 0.9-0.6 1.4-1.5 1.4s-1.5-0.5-1.5-1.3v-15.1z"/>
  <path class="cls-0" d="m111.4 132.7c-1 0.3-2.5 0-2.8-1.6-0.6 1.1-2.2 1.8-3.8 1.8-3.1 0-5.5-2.3-5.5-6 0-3.9 2.7-6.4 5.7-6.5 1.7 0 2.9 0.7 3.5 1.7 0.3-1 0.5-1.7 1.5-1.7 1.4 0 1.5 0.9 1.4 1.7v7.9l0.1 1.5c0 0.6-0.3 1.1-0.1 1.2zm-6-9.4c-1.7 0-3 1.3-3 3.3s1.2 3.5 2.9 3.5 3.1-1.1 3.1-3.2c0-2.3-1.5-3.5-3-3.6z"/>
  <path class="cls-0" d="m113.4 122.2 0.2-1.2c0.7-0.8 2.5-1.1 3 0.4l2.3 6.7 2.3-6.6c0.3-1.1 1.4-1.3 2.2-1 0.7 0.3 0.9 1.2 0.6 2l-4.5 11.3c-0.9 2.2-2.2 3.4-4.8 3.4-0.7 0-1.5-0.4-1.6-1.4 0-0.7 0.7-1.3 1.6-1.3l0.9-0.2c0.3-0.3 0.7-0.6 0.9-1.2l0.8-1.5-3.9-8.9v-0.5z"/>
  <path class="cls-0" d="m128 127.7c0 1.3 1.3 2.7 3.4 2.6 1.7 0 2.5-1 3.2-1.4 0.8-0.2 1.9 0.4 1.9 1.5 0.3 2.1-4.9 3.4-7.6 2.2-2.2-0.6-4.2-2.6-4.1-6-0.1-3.3 2.4-6.1 6.3-6.1 3.3 0.1 5.8 2.3 5.9 5.6 0 0.9-0.3 1.6-1.1 1.6h-8zm6-2.2c-0.2-1.5-1-2.4-2.6-2.4s-3.1 1-3.4 2.4h6z"/>
  <path class="cls-0" d="m138.8 121c0.7-0.7 3.2-1 2.8 1.5l0.4-0.4c0.7-1.7 2.4-2 3.3-1.7 1.1 0.2 1.2 2.2 0.4 3.1-0.3 0.3-0.9 0.3-1.3 0.2-2-0.2-2.4 1.3-2.5 2.8v5c0.1 0.9-0.7 1.4-1.6 1.4s-1.5-0.5-1.5-1.3v-10.6z"/>
  <path d="m22.1 11.4-0.1 8.6c-5.2-0.9-7.5 5.4-2.3 6.3 2.6 0.4 4.1-1.3 4.2-2.7v-7.7c2.6-0.4 2.9 2.1 2.4 3.7 0 0.3 0.3 0.8 1 0.4 3-1.3 3-6.5-1.3-7.6-1.1-0.3-1.5-1.8-2.2-1.9h-1.5c0 0.1-0.2 0.4-0.2 0.9z" fill="#FFF8DF" stroke="#E99097" stroke-linecap="round" stroke-linejoin="round" stroke-miterlimit="10" stroke-width="2.5"/>
  <path class="cls-3" d="m22.1 21.5c-1.8-0.8-5.1 0.6-4.7 2l1 2.1 3.3 0.4 1.9-1.9-0.6-2.4-0.9-0.2z"/>
  <path d="m130.9 9.1 0.1 8.5c-4.2-1.3-7.5 3.3-4 5.9 2.5 1.2 6.3 0 6.6-2.4v-7.5c2.6 0.3 2.6 2.4 2.2 4 0.4 1.3 4.7-2.2 1.7-6.1-1-1.1-2.5-1.1-3.1-2-0.9-1.6-1.3-1-2.9-1-0.3 0-0.6 0.4-0.6 0.6z" fill="#FFF8DF" stroke="#E99097" stroke-linecap="round" stroke-linejoin="round" stroke-miterlimit="10" stroke-width="3"/>
  <path class="cls-3" d="m131.5 18.9c-3-0.9-6.5 1.1-5 3.7l2.5 1.3 3.5-1.3 0.4-3.6-1.4-0.1z"/>
  <path d="m132 81.3h10.5c1 0 1.1 1.2 1 1.5l-1.9 9.6c-0.6 3.2-4.6 3.2-5.8 2.2-2.8-1.6-1.8-6.2 2.8-5.6l1-3.4h-6l-1.6 7.4c-1.4 3.9-8 2.5-7.4-1.6 1-3.3 4.8-2.6 5.4-2l1.5-6.9c0-0.4 0.1-1.2 0.5-1.2z" fill="#FFF8DF" stroke="#E99097" stroke-linecap="round" stroke-linejoin="round" stroke-miterlimit="10" stroke-width="1.8"/>
  <path class="cls-3" d="m133.1 82.9 9.3-0.1-1.4-1.3-8.6-0.2-0.9 2.1v1.6l1.6-2.1z"/>
  <path class="cls-3" d="m130.9 90.4c-2.8-1.5-5.9 0.6-5 2.4l1.2 1.6 2.5 0.1 1.9-2.5-0.6-1.6z"/>
  <path class="cls-3" d="m139.9 90c-2.4-1-5.3-0.5-4.4 2.8l3.1 1.7 1.9-2.4-0.6-2.1z"/>
  <path d="m31.4 41.9c2.1-15.8 17.7-39.7 46.2-39.7s44.8 19.3 46.4 39.7" fill="none" stroke="#E99097" stroke-linecap="round" stroke-linejoin="round" stroke-miterlimit="10" stroke-width="3"/>
  <path d="m51.5 13.4c7.6-4.4 14.6-8.1 25.9-8.1 10.6 0.1 18.1 2 26.1 7 3.1 1.5 2.1 4.3 0.9 5.3l-26.1-8.1-26.9 7.6c-1.9-0.6-1.4-3.2 0.1-3.7z" fill="#FFE3DF"/>
  <path d="m37.4 39.8c4-14.8 17.6-29.9 39.6-29.9 16.9-0.3 35.6 7.7 40.9 29.1v4l-5.3 0.9c-9.6-11.9-20.2-16.4-31.1-16.4-12.5-0.6-24 3.5-37.4 16.4l-6.7-1.8v-2.3z" fill="#FEF6DA" stroke="#E99097" stroke-linecap="round" stroke-linejoin="round" stroke-miterlimit="10" stroke-width="3"/>
  <path d="m43.9 44.8c5-6.8 14.6-17.2 33.7-17.3 15.5-0.1 25.4 6.5 34.3 16.6l-2.5 4.4-26-15.7-9.4-0.4-17.6 6.5-11.5 10.7-1-4.8z" fill="#FFFBEA"/>
  <path d="m77.6 32.9c-12.1 0-21.6 5.6-31.8 16l-10.4 24.7c2.2 19.3 18 28.9 42.4 29 21.8 0 41.3-7.2 42.7-27.7l-6.1-1.4-2.4-26.4c-8.4-9.2-19.6-14.1-34.4-14.2z" fill="#FFBDBD"/>
  <path d="m41.7 75.1c3.6 6.5 13.1 13.8 29.1 15l5.3 4.7 10.3-5c13.7-2.2 22.5-6.8 27.4-14.7l6.7-0.2c-2 19.9-19.9 27.7-42.9 27.7-22.7 0-39.8-8.2-42.2-26.6l6.3-0.9z" fill="#F8ABAD"/>
  <path class="cls-2" d="m35.4 75.1c2 15.5 14.4 27.5 42.2 27.5 22.5 0 40.3-7 42.9-26.6"/>
  <path class="cls-2" d="m43.9 43.9c7.7-10 19-16.5 33.5-16.5 12.7 0 23.2 5.1 34.1 16.5"/>
  <path class="cls-3" d="m33.8 41.9c-6.2 0-11.5 6.6-11.7 15.5l0.5 4 12.3 14 0.5-33.5h-1.6z"/>
  <path class="cls-4" d="m32.4 66.6c-3.1 1.5-8.6-3.1-9.3-8.5l-1.1 2.5c0.4 8.2 4.8 14.3 12.6 14.5l0.8-9.6-3 1.1z"/>
  <path class="cls-2" d="m34.9 41.6c-5.8-0.2-12.8 5-12.8 15.9-0.2 11.5 5.3 17.6 12.8 17.6"/>
  <path class="cls-3" d="m122.1 41.9-1.6 0.2-0.1 33c6.7 1 13.4-4.5 13.2-16.2 0-8-4.5-17-11.5-17z"/>
  <path class="cls-4" d="m123.6 66.5c3.4 1.4 8.4-2.5 8.9-8.4l1 2.5c0 5.8-2.6 13.4-10.5 14.4h-3l1.1-9.9 2.5 1.4z"/>
  <path class="cls-2" d="m122 41.6c5.8-0.2 11.8 5.8 11.8 15.5 0.2 10.8-4.4 17.8-12.7 18"/>
  <path class="cls-5" d="m39.4 39.4c-2.9 0-5 3-5 7v23c0 4 2.2 7 5 7s5-3 5-7v-22.9c0-3.9-2-7.1-5-7.1z"/>
  <path class="cls-6" d="m39.4 39.4c-2.6 0.2-4.9 2.5-4.7 7.1l0.8 1c1.3-3.5 4.3-6.6 7.6-1.4 0 0.2 0.8 0.8 0.8 0.4 0.5-3-2-7.1-4.5-7.1z"/>
  <path class="cls-9" d="m35.5 65.1c1.4 3.8 5.5 5 8-0.1l0.6 4.5c0.4 8.4-9.1 9.1-9.7 0.4l1.1-4.8z"/>
  <path class="cls-2" d="m39.4 39.4c-2.9 0-5 3-5 7v23c0 4 2.2 7 5 7s5-2.4 5-6.4v-23.4c0-4-2-7.2-5-7.2z"/>
  <path class="cls-5" d="m116.5 39.4c-2.6 0.1-5.1 2.7-5.1 7.1v22.9c0 4 2.1 7.1 5.1 7 2.6 0.1 4.9-3.3 4.9-7v-22.9c0-4.1-1.9-7.1-4.9-7.1z"/>
  <path class="cls-7" d="m116.5 40.1c-2.6 0.3-4.6 2.8-4.5 7.3 1.1-1.8 4-7.5 7.9-2l1.1 1.2c0.1-3.6-1.9-6.7-4.5-6.5z"/>
  <path class="cls-9" d="m112.6 64c3.4 6.1 6.8 5.4 8.8 0.5l-0.3 7.5c-2.1 6.4-6.7 3.9-9.1 0.4v-8.4z"/>
  <path class="cls-2" d="m116.5 39.4c-2.6 0.1-5.1 2.7-5.1 7.1v22.9c0 4 2.1 7 5 7s4.7-2.4 5-6.4v-23.4c0.1-4.2-2.3-7.2-4.9-7.2z"/>
  <path class="cls-2" d="m34 41.5"/>
  <path class="cls-2" d="m122.1 41.5"/>
  <path class="cls-0" d="m77.8 71c-5.8 0.1-11 4.5-11 11.1 0 6.8 5.6 11 10.8 11 6.4 0 11.2-4.7 11.2-11 0-6-4.9-11.1-11-11.1z"/>
  <path class="cls-11" d="m74.5 76.9c-0.7 0.2-0.9 0.7-0.8 1.2v8c-0.1 1.8 1.4 1.7 2.2 1l7-3.6c1-0.4 1-1.9-0.1-2.4l-7.2-4.1c-0.1 0-0.6-0.4-1.1-0.1z"/>
  <path class="cls-2" d="m32.1 41.6"/>
  <path class="cls-2" d="m123.5 42"/>
  <path class="cls-2" d="m52.4 15.5c5.2-3.6 13.5-6.4 20.6-6.6"/>
</svg>